<svg width="18" height="18" viewBox="0 0 18 18" fill="none" xmlns="http://www.w3.org/2000/svg">
<path fill-rule="evenodd" clip-rule="evenodd" d="M9.6924 0.493125C9.13529 -0.164375 8.12121 -0.164375 7.5641 0.493125L6.89283 1.28546C6.5512 1.68866 6.01111 1.86416 5.49772 1.73876L4.48892 1.49232C3.65178 1.28783 2.83135 1.88391 2.76714 2.74327L2.68978 3.77887C2.65041 4.30584 2.31659 4.76531 1.82756 4.96559L0.866565 5.35919C0.0691006 5.68579 -0.24428 6.65029 0.208905 7.38327L0.755018 8.26653C1.03292 8.71604 1.03292 9.28396 0.755018 9.73347L0.208905 10.6167C-0.24428 11.3497 0.0691006 12.3142 0.866565 12.6408L1.82756 13.0344C2.31659 13.2347 2.65041 13.6942 2.68978 14.2211L2.76714 15.2567C2.83135 16.1161 3.65178 16.7122 4.48892 16.5077L5.49772 16.2613C6.01111 16.1358 6.5512 16.3113 6.89283 16.7145L7.5641 17.5069C8.12121 18.1644 9.13529 18.1644 9.6924 17.5069L10.3637 16.7145C10.7053 16.3113 11.2454 16.1358 11.7588 16.2613L12.7676 16.5077C13.6047 16.7122 14.4251 16.1161 14.4894 15.2567L14.5667 14.2211C14.6061 13.6942 14.9399 13.2347 15.4289 13.0344L16.3899 12.6408C17.1874 12.3142 17.5008 11.3497 17.0476 10.6167L16.5015 9.73347C16.2236 9.28396 16.2236 8.71604 16.5015 8.26653L17.0476 7.38327C17.5008 6.65029 17.1874 5.68579 16.3899 5.35919L15.4289 4.96559C14.9399 4.76531 14.6061 4.30584 14.5667 3.77887L14.4894 2.74327C14.4251 1.88391 13.6047 1.28783 12.7676 1.49232L11.7588 1.73876C11.2454 1.86416 10.7053 1.68866 10.3637 1.28546L9.6924 0.493125ZM12.2022 5.22322L13.7985 6.81959L7.58225 13.0359L4.15534 9.60898L5.75172 8.0126L7.58225 9.84314L12.2022 5.22322Z" fill="white"/>
</svg>
