<svg width="385" height="228" viewBox="0 0 385 228" fill="none" xmlns="http://www.w3.org/2000/svg">
  <g filter="url(#filter0_b_5644_3191)">
    <path
      d="M0 58.1895C0 54.4703 1.03707 50.8247 2.9947 47.6624L28.9815 5.68374C31.1689 2.15021 35.0289 0 39.1847 0H149.5H377C381.418 0 385 3.58172 385 8V192.969C385 196.764 383.205 200.334 380.16 202.599L351.313 224.049C347.863 226.615 343.678 228 339.379 228H156H8C3.58172 228 0 224.418 0 220V58.1895Z"
      fill="white" fill-opacity="0.3" />
    <path
      d="M0 58.1895C0 54.4703 1.03707 50.8247 2.9947 47.6624L28.9815 5.68374C31.1689 2.15021 35.0289 0 39.1847 0H149.5H377C381.418 0 385 3.58172 385 8V192.969C385 196.764 383.205 200.334 380.16 202.599L351.313 224.049C347.863 226.615 343.678 228 339.379 228H156H8C3.58172 228 0 224.418 0 220V58.1895Z"
      fill="url(#paint0_linear_5644_3191)" fill-opacity="0.5" />
    <path
      d="M0.5 58.1895C0.5 54.5633 1.51114 51.0089 3.41983 47.9256L29.4066 5.94692C31.5029 2.56062 35.202 0.5 39.1847 0.5H149.5H377C381.142 0.5 384.5 3.85786 384.5 8V192.969C384.5 196.605 382.78 200.028 379.862 202.197L351.015 223.648C347.651 226.149 343.571 227.5 339.379 227.5H156H8C3.85786 227.5 0.5 224.142 0.5 220V58.1895Z"
      stroke="url(#paint1_linear_5644_3191)" />
  </g>
  <g filter="url(#filter1_i_5644_3191)">
    <path d="M357.5 194L342 188.5V67L357.5 51.5V29" stroke="black" stroke-opacity="0.3" stroke-width="2" />
    <path d="M38 207.5H31V200.5" stroke="black" stroke-opacity="0.3" stroke-width="2" />
    <path d="M234 30.5H95.5L104 45" stroke="black" stroke-opacity="0.3" stroke-width="2" />
    <path fill-rule="evenodd" clip-rule="evenodd"
      d="M338 47C342.971 47 347 42.9706 347 38C347 33.0294 342.971 29 338 29C333.029 29 329 33.0294 329 38C329 42.9706 333.029 47 338 47ZM338 43C340.761 43 343 40.7614 343 38C343 35.2386 340.761 33 338 33C335.239 33 333 35.2386 333 38C333 40.7614 335.239 43 338 43Z"
      fill="black" fill-opacity="0.3" />
    <path d="M249.27 29H248.529V47H249.27V29Z" fill="black" fill-opacity="0.3" />
    <path d="M251.494 29H250.753V47H251.494V29Z" fill="black" fill-opacity="0.3" />
    <path d="M253.718 29H252.235V47H253.718V29Z" fill="black" fill-opacity="0.3" />
    <path d="M255.2 29H254.459V47H255.2V29Z" fill="black" fill-opacity="0.3" />
    <path d="M261.129 29H259.647V47H261.129V29Z" fill="black" fill-opacity="0.3" />
    <path d="M269.282 29H263.353V47H269.282V29Z" fill="black" fill-opacity="0.3" />
    <path d="M271.506 29H270.765V47H271.506V29Z" fill="black" fill-opacity="0.3" />
    <path d="M274.47 29H272.247V47H274.47V29Z" fill="black" fill-opacity="0.3" />
    <path d="M278.176 29H275.953V47H278.176V29Z" fill="black" fill-opacity="0.3" />
    <path d="M281.141 29H278.917V47H281.141V29Z" fill="black" fill-opacity="0.3" />
    <path d="M282.624 29H281.882V47H282.624V29Z" fill="black" fill-opacity="0.3" />
    <path d="M284.847 29H283.365V47H284.847V29Z" fill="black" fill-opacity="0.3" />
    <path d="M288.553 29H287.812V47H288.553V29Z" fill="black" fill-opacity="0.3" />
    <path d="M291.517 29H290.776V47H291.517V29Z" fill="black" fill-opacity="0.3" />
    <path d="M293 29H292.259V47H293V29Z" fill="black" fill-opacity="0.3" />
    <path d="M295.223 29H294.482V47H295.223V29Z" fill="black" fill-opacity="0.3" />
    <path d="M297.447 29H295.965V47H297.447V29Z" fill="black" fill-opacity="0.3" />
    <path d="M305.6 29H303.377V47H305.6V29Z" fill="black" fill-opacity="0.3" />
    <path d="M307.823 29H307.082V47H307.823V29Z" fill="black" fill-opacity="0.3" />
    <path d="M309.306 29H308.564V47H309.306V29Z" fill="black" fill-opacity="0.3" />
    <path d="M314.494 29H312.271V47H314.494V29Z" fill="black" fill-opacity="0.3" />
    <path d="M317.459 29H315.235V47H317.459V29Z" fill="black" fill-opacity="0.3" />
    <path d="M318.941 29H318.2V47H318.941V29Z" fill="black" fill-opacity="0.3" />
  </g>
  <defs>
    <filter id="filter0_b_5644_3191" x="-50" y="-50" width="485" height="328" filterUnits="userSpaceOnUse"
      color-interpolation-filters="sRGB">
      <feFlood flood-opacity="0" result="BackgroundImageFix" />
      <feGaussianBlur in="BackgroundImage" stdDeviation="25" />
      <feComposite in2="SourceAlpha" operator="in" result="effect1_backgroundBlur_5644_3191" />
      <feBlend mode="normal" in="SourceGraphic" in2="effect1_backgroundBlur_5644_3191" result="shape" />
    </filter>
    <filter id="filter1_i_5644_3191" x="30" y="29" width="328.5" height="179.5" filterUnits="userSpaceOnUse"
      color-interpolation-filters="sRGB">
      <feFlood flood-opacity="0" result="BackgroundImageFix" />
      <feBlend mode="normal" in="SourceGraphic" in2="BackgroundImageFix" result="shape" />
      <feColorMatrix in="SourceAlpha" type="matrix" values="0 0 0 0 0 0 0 0 0 0 0 0 0 0 0 0 0 0 127 0"
        result="hardAlpha" />
      <feOffset />
      <feGaussianBlur stdDeviation="1.5" />
      <feComposite in2="hardAlpha" operator="arithmetic" k2="-1" k3="1" />
      <feColorMatrix type="matrix" values="0 0 0 0 0 0 0 0 0 0 0 0 0 0 0 0 0 0 0.8 0" />
      <feBlend mode="normal" in2="shape" result="effect1_innerShadow_5644_3191" />
    </filter>
    <linearGradient id="paint0_linear_5644_3191" x1="14.5" y1="11" x2="391.5" y2="217.5" gradientUnits="userSpaceOnUse">
      <stop stop-color="white" />
      <stop offset="1" stop-color="white" stop-opacity="0" />
    </linearGradient>
    <linearGradient id="paint1_linear_5644_3191" x1="-111.5" y1="-120.5" x2="392" y2="228"
      gradientUnits="userSpaceOnUse">
      <stop stop-color="white" />
      <stop offset="1" stop-color="white" stop-opacity="0" />
    </linearGradient>
  </defs>
</svg>