<svg width="385" height="228" viewBox="0 0 385 228" fill="none" xmlns="http://www.w3.org/2000/svg">
<path d="M0 58.1895C0 54.4703 1.03707 50.8247 2.9947 47.6624L28.9815 5.68374C31.1689 2.15021 35.0289 0 39.1847 0H149.5H377C381.418 0 385 3.58172 385 8V192.969C385 196.764 383.205 200.334 380.16 202.599L351.313 224.049C347.863 226.615 343.678 228 339.379 228H156H8C3.58172 228 0 224.418 0 220V58.1895Z" fill="black"/>
<path d="M357.5 194L342 188.5V67L357.5 51.5V29" stroke="white" stroke-opacity="0.3" stroke-width="2"/>
<path d="M38 207.5H31V200.5" stroke="white" stroke-opacity="0.3" stroke-width="2"/>
<path d="M234 30.5H95.5L104 45" stroke="white" stroke-opacity="0.3" stroke-width="2"/>
<circle cx="338" cy="38" r="9" fill="white"/>
<circle cx="338" cy="38" r="5" fill="black"/>
<path d="M249.27 29H248.529V47H249.27V29Z" fill="white"/>
<path d="M251.494 29H250.753V47H251.494V29Z" fill="white"/>
<path d="M253.718 29H252.235V47H253.718V29Z" fill="white"/>
<path d="M255.2 29H254.459V47H255.2V29Z" fill="white"/>
<path d="M261.129 29H259.646V47H261.129V29Z" fill="white"/>
<path d="M269.282 29H263.353V47H269.282V29Z" fill="white"/>
<path d="M271.506 29H270.765V47H271.506V29Z" fill="white"/>
<path d="M274.47 29H272.247V47H274.47V29Z" fill="white"/>
<path d="M278.176 29H275.953V47H278.176V29Z" fill="white"/>
<path d="M281.141 29H278.917V47H281.141V29Z" fill="white"/>
<path d="M282.624 29H281.882V47H282.624V29Z" fill="white"/>
<path d="M284.847 29H283.365V47H284.847V29Z" fill="white"/>
<path d="M288.553 29H287.812V47H288.553V29Z" fill="white"/>
<path d="M291.518 29H290.776V47H291.518V29Z" fill="white"/>
<path d="M293 29H292.259V47H293V29Z" fill="white"/>
<path d="M295.224 29H294.482V47H295.224V29Z" fill="white"/>
<path d="M297.447 29H295.965V47H297.447V29Z" fill="white"/>
<path d="M305.6 29H303.377V47H305.6V29Z" fill="white"/>
<path d="M307.823 29H307.082V47H307.823V29Z" fill="white"/>
<path d="M309.306 29H308.564V47H309.306V29Z" fill="white"/>
<path d="M314.494 29H312.271V47H314.494V29Z" fill="white"/>
<path d="M317.459 29H315.235V47H317.459V29Z" fill="white"/>
<path d="M318.941 29H318.2V47H318.941V29Z" fill="white"/>
</svg>
